<svg width="128" height="128" viewBox="0 0 128 128" fill="none" xmlns="http://www.w3.org/2000/svg">
<path d="M101.333 21.3334H26.6667C22.4233 21.3334 18.3536 23.0191 15.353 26.0197C12.3525 29.0202 10.6667 33.0899 10.6667 37.3334V90.6667C10.6667 94.9102 12.3525 98.9798 15.353 101.98C18.3536 104.981 22.4233 106.667 26.6667 106.667H101.333C105.577 106.667 109.647 104.981 112.647 101.98C115.648 98.9798 117.333 94.9102 117.333 90.6667V37.3334C117.333 33.0899 115.648 29.0202 112.647 26.0197C109.647 23.0191 105.577 21.3334 101.333 21.3334V21.3334ZM101.333 32L66.6667 55.84C65.856 56.3081 64.9363 56.5546 64.0001 56.5546C63.0639 56.5546 62.1442 56.3081 61.3334 55.84L26.6667 32H101.333Z" fill="white"/>
</svg>
