<svg width="1228" height="999" viewBox="0 0 1228 999" fill="none" xmlns="http://www.w3.org/2000/svg">
<path d="M1078.94 -0.985033C1045.75 -1.47603 968.645 9.79197 839.913 95.951C769.752 78.416 695.101 69.763 620.322 69.763C538.044 69.763 454.897 80.211 377.357 101.482C192.534 -24.605 110.955 1.23397 110.955 1.23397C57.697 134.417 90.608 233.022 100.611 257.511C38.014 325.069 -0.200012 411.338 -0.200012 517.07C-0.200012 596.892 8.88499 668.486 31.081 730.723C32.312 735.526 31.913 734.455 33.987 738.567C38.877 751.451 44.314 763.957 50.425 776.035C52.519 780.381 54.425 783.598 54.425 783.598C116.82 899.905 239.821 975.036 458.669 998.626L789.664 999.001C1023.06 975.857 1135.05 900.502 1186.66 783.41L1189.94 775.785C1194.83 763.957 1199.09 751.65 1210.75 710.223C1222.41 668.796 1227.63 597.051 1227.63 517.038C1227.63 402.283 1184.53 310.461 1114.53 240.604C1126.77 201.124 1143.11 113.446 1098.22 1.20197C1098.22 1.20197 1091.93 -0.793033 1078.94 -0.986033L1078.94 -0.985033ZM818.1 420.133C871.993 420.016 918.157 429.269 952.817 465.632V465.663C996.186 511.204 1021.57 566.188 1021.57 625.441C1021.57 902.099 843.634 909.624 624.166 909.624C404.66 909.624 226.766 871.288 226.766 625.441C226.766 566.58 251.775 511.925 294.609 466.569C366.06 390.979 486.974 431.007 624.167 431.007C694.59 430.996 760.731 420.257 818.102 420.132L818.1 420.133ZM409.293 501.601C363.627 501.601 326.606 563.342 326.606 639.537C326.606 715.743 363.625 777.504 409.293 777.504C454.959 777.504 491.98 715.743 491.98 639.537C491.98 563.353 454.961 501.656 409.293 501.601ZM852.942 501.601C807.276 501.601 770.255 563.342 770.255 639.537C770.255 715.743 807.274 777.504 852.942 777.504C898.608 777.504 935.629 715.743 935.629 639.537C935.629 563.353 898.61 501.656 852.942 501.601Z" fill="#3730A3"/>
</svg>
