<svg width="119" height="119" viewBox="0 0 119 119" fill="none" xmlns="http://www.w3.org/2000/svg">
<path d="M9.9364 109.083L16.6401 84.4503C12.2229 76.8782 9.90217 68.2663 9.91657 59.5C9.91657 32.1151 32.115 9.91663 59.4999 9.91663C86.8848 9.91663 109.083 32.1151 109.083 59.5C109.083 86.8848 86.8848 109.083 59.4999 109.083C50.7374 109.097 42.1292 106.779 34.5595 102.365L9.9364 109.083ZM41.6053 36.2355C40.965 36.2752 40.3393 36.4439 39.7657 36.7313C39.2279 37.0359 38.7369 37.4167 38.308 37.8618C37.713 38.4221 37.3758 38.908 37.0139 39.379C35.1813 41.764 34.1956 44.6915 34.2124 47.6991C34.2223 50.1287 34.857 52.4938 35.8487 54.7053C37.8766 59.1777 41.2136 63.9129 45.6215 68.301C46.6826 69.3571 47.7189 70.4182 48.8345 71.4049C54.3055 76.2218 60.825 79.6955 67.8745 81.5497L70.6958 81.981C71.6131 82.0306 72.5304 81.9612 73.4527 81.9166C74.8967 81.842 76.3067 81.451 77.5829 80.7712C78.2323 80.4368 78.8659 80.0728 79.482 79.6804C79.482 79.6804 79.6952 79.5415 80.1018 79.2341C80.7712 78.7383 81.1827 78.3863 81.738 77.8061C82.1496 77.3797 82.5066 76.8789 82.7793 76.3087C83.166 75.5005 83.5528 73.9585 83.7114 72.6743C83.8304 71.6925 83.7957 71.157 83.7809 70.8248C83.761 70.2943 83.3197 69.7439 82.8388 69.5108L79.953 68.2167C79.953 68.2167 75.6393 66.3375 73.0064 65.1376C72.7288 65.0166 72.4313 64.9477 72.1288 64.9343C71.7895 64.8995 71.4468 64.9376 71.1235 65.0462C70.8002 65.1549 70.5039 65.3314 70.2545 65.564V65.5541C70.2297 65.5541 69.8975 65.8367 66.3127 70.1802C66.1069 70.4567 65.8235 70.6656 65.4985 70.7804C65.1735 70.8952 64.8218 70.9107 64.488 70.8248C64.1649 70.7384 63.8484 70.629 63.5409 70.4975C62.9261 70.2397 62.7129 70.1405 62.2914 69.9571L62.2667 69.9472C59.43 68.7087 56.8037 67.0359 54.4821 64.9888C53.8573 64.4434 53.2772 63.8484 52.6822 63.2733C50.7315 61.4051 49.0314 59.2918 47.6247 56.9861L47.3322 56.515C47.122 56.1985 46.9521 55.8571 46.8264 55.4986C46.638 54.7697 47.1289 54.1846 47.1289 54.1846C47.1289 54.1846 48.3337 52.8657 48.894 52.1517C49.3606 51.5583 49.7958 50.941 50.1981 50.3023C50.7832 49.3602 50.9666 48.3933 50.6592 47.6446C49.2709 44.2531 47.8329 40.8765 46.3554 37.5246C46.0628 36.8602 45.1951 36.3842 44.4067 36.29C44.139 36.2603 43.8712 36.2305 43.6035 36.2107C42.9376 36.1776 42.2704 36.1842 41.6053 36.2305V36.2355Z" fill="white"/>
</svg>
