<svg width="274" height="274" viewBox="0 0 274 274" fill="none" xmlns="http://www.w3.org/2000/svg">
<path d="M49.8712 176.27L75.2644 13.5448C76.142 7.99521 83.5861 6.68408 86.2137 11.645L113.507 62.7256L49.8712 176.27ZM231.188 214.062L206.174 65.9366C205.993 64.8778 205.525 63.8888 204.822 63.0768C204.119 62.2648 203.207 61.6607 202.185 61.3299C201.163 60.9992 200.07 60.9544 199.024 61.2004C197.978 61.4464 197.02 61.9739 196.253 62.7256L42.8125 214.062L128.095 263.249C130.712 264.684 133.649 265.436 136.633 265.436C139.618 265.436 142.555 264.684 145.172 263.249L231.188 214.062ZM161.81 85.0524L142.255 47.8376C141.769 46.8816 141.028 46.0788 140.113 45.518C139.199 44.9572 138.147 44.6604 137.075 44.6604C136.002 44.6604 134.951 44.9572 134.036 45.518C133.122 46.0788 132.381 46.8816 131.895 47.8376L45.9325 201.08L161.81 85.0524Z" fill="white"/>
</svg>
