<svg width="238" height="238" viewBox="0 0 238 238" fill="none" xmlns="http://www.w3.org/2000/svg">
<path d="M0 119V238H238V0H0V119ZM191.783 109.51C197.489 110.853 202.674 113.843 206.696 118.108C208.867 120.428 212.117 124.69 212.393 125.738C212.467 126.051 202.129 132.982 195.852 136.857C195.621 137.014 194.691 136.047 193.68 134.529C190.623 130.074 187.403 128.141 182.486 127.791C175.28 127.323 170.631 131.086 170.668 137.4C170.631 138.945 170.975 140.476 171.672 141.855C173.264 145.15 176.246 147.121 185.462 151.115C202.508 158.434 209.79 163.275 214.319 170.133C219.391 177.801 220.514 190.043 217.108 199.184C213.315 209.061 203.936 215.799 190.764 218.008C186.696 218.744 177.013 218.625 172.632 217.815C163.067 216.111 154.001 211.381 148.423 205.186C146.214 202.783 141.952 196.469 142.227 196.045C142.346 195.889 143.313 195.272 144.399 194.647L153.235 189.53L160.092 185.543L161.528 187.67C163.543 190.727 167.916 194.915 170.557 196.305C178.15 200.336 188.57 199.756 193.725 195.145C195.815 193.405 196.982 190.727 196.826 188.02C196.826 185.268 196.476 184.033 195.041 181.973C193.182 179.34 189.426 177.094 178.693 172.446C166.414 167.136 161.104 163.885 156.307 158.657C153.287 155.215 151.053 151.157 149.761 146.764C148.869 143.395 148.638 134.946 149.338 131.577C151.859 119.684 160.843 111.436 173.74 108.997C177.927 108.186 187.685 108.491 191.791 109.502L191.783 109.51ZM135.928 119.469L136.002 129.189H105.01V217.242H83.0843V129.189H52.1369V119.662C52.1369 114.352 52.2559 109.941 52.4046 109.822C52.5236 109.666 71.3479 109.592 94.2034 109.629L135.809 109.748L135.928 119.469Z" fill="white"/>
</svg>
