<svg width="223" height="255" viewBox="0 0 223 255" fill="none" xmlns="http://www.w3.org/2000/svg">
<g clip-path="url(#clip0_13_12)">
<path d="M112.976 255H112.944C109.344 255 105.978 254.033 103.09 252.333L103.185 252.386L71.9973 233.931C67.3461 231.317 69.6186 230.403 71.1477 229.861C76.1944 228.296 81.0194 226.089 85.5047 223.295L85.2498 223.444C85.6215 223.274 86.0304 223.203 86.4375 223.236C86.8447 223.269 87.2364 223.407 87.5754 223.635L87.5648 223.624L111.521 237.851C111.969 238.091 112.47 238.216 112.978 238.214C113.486 238.212 113.985 238.084 114.431 237.841L114.41 237.851L207.794 183.908C208.227 183.643 208.585 183.272 208.834 182.829C209.083 182.386 209.215 181.887 209.217 181.379V73.5463C209.212 73.0348 209.078 72.533 208.825 72.0885C208.572 71.644 208.21 71.2716 207.772 71.0069L207.762 70.9963L114.41 17.1063C113.968 16.8593 113.47 16.7306 112.964 16.7324C112.458 16.7343 111.961 16.8667 111.521 17.1169L111.532 17.1063L18.2012 71.0069C17.7557 71.2679 17.3855 71.64 17.1268 72.087C16.8681 72.5339 16.7297 73.0404 16.7251 73.5569V181.39C16.7251 182.463 17.3092 183.388 18.1799 183.876L18.1905 183.887L43.7825 198.677C57.6615 205.626 66.1568 197.444 66.1568 189.231V82.7475C66.1568 81.26 67.3674 80.0488 68.854 80.0488H80.7367C82.2234 80.0488 83.434 81.2494 83.434 82.7475V189.231C83.434 207.772 73.3459 218.408 55.782 218.408L55.0811 218.418C47.6692 218.43 40.4015 216.369 34.0979 212.468L9.78026 198.464C6.80107 196.726 4.32933 194.237 2.61144 191.245C0.893547 188.252 -0.0104732 184.862 -0.010498 181.411V73.5569C0.000121001 66.3319 3.89731 60.0313 9.69531 56.61L9.79088 56.5569L103.185 2.56063C106.211 0.901021 109.607 0.0354617 113.057 0.0447517C116.508 0.0540417 119.899 0.937878 122.916 2.61375L122.809 2.56063L216.193 56.5569C222.087 60.0313 225.973 66.3319 225.995 73.5569V181.401C225.991 184.835 225.093 188.209 223.389 191.19C221.685 194.171 219.234 196.656 216.278 198.401L216.183 198.454L122.82 252.408C119.846 254.133 116.467 255.035 113.029 255.021H112.955L112.976 255Z" fill="white"/>
<path d="M141.828 180.721C100.966 180.721 92.3962 161.957 92.3962 146.2V146.189C92.3962 144.702 93.5962 143.501 95.0829 143.501H107.189C108.537 143.501 109.652 144.489 109.865 145.775V145.786C111.68 158.089 117.117 164.294 141.828 164.294C161.505 164.294 169.862 159.843 169.862 149.398C169.862 143.374 167.494 138.911 136.922 135.915C111.372 133.365 95.5713 127.734 95.5713 107.281C95.5713 88.4319 111.457 77.1801 138.048 77.1801C167.972 77.1801 182.775 87.5713 184.644 109.863L184.655 110.096C184.655 110.812 184.37 111.498 183.865 112.005C183.359 112.511 182.673 112.795 181.957 112.795H169.926C169.317 112.793 168.726 112.583 168.251 112.201C167.777 111.819 167.446 111.286 167.314 110.691V110.67C164.404 97.7288 157.332 93.5957 138.154 93.5957C116.671 93.5957 114.176 101.086 114.176 106.686C114.176 113.486 117.128 115.462 146.129 119.298C174.821 123.101 188.456 128.467 188.456 148.644C188.414 169.033 171.455 180.699 141.86 180.699L141.828 180.721Z" fill="white"/>
</g>
<defs>
<clipPath id="clip0_13_12">
<rect width="223" height="255" fill="white"/>
</clipPath>
</defs>
</svg>
