<svg width="274" height="278" viewBox="0 0 274 278" fill="none" xmlns="http://www.w3.org/2000/svg">
<g filter="url(#filter0_d_13_19)">
<path d="M33.0191 90.6555L87.3375 239.429C49.3414 221.02 23.1723 182.06 23.1723 137C23.1723 120.464 26.7043 104.837 33.0191 90.6555V90.6555ZM213.848 131.274C213.848 117.199 208.818 107.459 204.483 99.8602C198.704 90.4949 193.298 82.5211 193.298 73.1559C193.298 62.6668 201.219 52.927 212.404 52.927C212.885 52.927 213.367 52.9805 213.902 53.034C193.62 34.4641 166.648 23.1188 137 23.1188C97.2379 23.1188 62.2387 43.5082 41.8492 74.4402C44.525 74.5473 47.0402 74.6008 49.1809 74.6008C61.0613 74.6008 79.5242 73.1559 79.5242 73.1559C85.6785 72.7812 86.3742 81.8254 80.2734 82.5211C80.2734 82.5211 74.1191 83.2168 67.2691 83.5914L108.744 206.891L133.682 132.184L115.968 83.5914C109.814 83.2168 104.034 82.5211 104.034 82.5211C97.8801 82.1465 98.6293 72.7812 104.73 73.1559C104.73 73.1559 123.514 74.6008 134.699 74.6008C146.579 74.6008 165.042 73.1559 165.042 73.1559C171.196 72.7812 171.892 81.8254 165.791 82.5211C165.791 82.5211 159.637 83.2168 152.787 83.5914L193.941 205.982L205.286 168.039C210.102 152.305 213.848 141.014 213.848 131.274ZM138.98 146.954L104.837 246.225C115.059 249.222 125.815 250.881 137 250.881C150.272 250.881 162.955 248.58 174.782 244.406C174.461 243.924 174.193 243.389 173.979 242.854L138.98 146.954ZM236.914 82.3605C237.395 85.9996 237.663 89.8527 237.663 94.0805C237.663 105.64 235.522 118.591 228.993 134.859L194.208 235.415C228.084 215.668 250.828 179.01 250.828 137C250.828 117.199 245.797 98.5758 236.914 82.3605V82.3605ZM269.719 137C269.719 210.209 210.156 269.719 137 269.719C63.7906 269.719 4.28125 210.156 4.28125 137C4.28125 63.7906 63.7906 4.28125 137 4.28125C210.156 4.28125 269.719 63.7906 269.719 137ZM263.618 137C263.618 67.1621 206.784 10.382 137 10.382C67.1621 10.382 10.382 67.1621 10.382 137C10.382 206.838 67.2156 263.618 137 263.618C206.838 263.618 263.618 206.838 263.618 137Z" fill="white"/>
</g>
<defs>
<filter id="filter0_d_13_19" x="-4" y="0" width="282" height="282" filterUnits="userSpaceOnUse" color-interpolation-filters="sRGB">
<feFlood flood-opacity="0" result="BackgroundImageFix"/>
<feColorMatrix in="SourceAlpha" type="matrix" values="0 0 0 0 0 0 0 0 0 0 0 0 0 0 0 0 0 0 127 0" result="hardAlpha"/>
<feOffset dy="4"/>
<feGaussianBlur stdDeviation="2"/>
<feComposite in2="hardAlpha" operator="out"/>
<feColorMatrix type="matrix" values="0 0 0 0 0 0 0 0 0 0 0 0 0 0 0 0 0 0 0.25 0"/>
<feBlend mode="normal" in2="BackgroundImageFix" result="effect1_dropShadow_13_19"/>
<feBlend mode="normal" in="SourceGraphic" in2="effect1_dropShadow_13_19" result="shape"/>
</filter>
</defs>
</svg>
